<mxfile host="app.diagrams.net" modified="2023-05-24T00:55:11.620Z" agent="Mozilla/5.0 (Windows NT 10.0; Win64; x64) AppleWebKit/537.36 (KHTML, like Gecko) Chrome/113.0.0.0 Safari/537.36" etag="gvh6H5_WEQFL44fXA9Xr" version="21.3.3" type="device">
  <diagram name="Página-1" id="kx07bzynsr2Vl5UddB5h">
    <mxGraphModel dx="778" dy="342" grid="1" gridSize="10" guides="1" tooltips="1" connect="1" arrows="1" fold="1" page="1" pageScale="1" pageWidth="827" pageHeight="1169" math="0" shadow="0">
      <root>
        <mxCell id="0" />
        <mxCell id="1" parent="0" />
        <mxCell id="rY1PE9I_1umJuD0Sh5mE-1" value="«interface»&lt;br&gt;&lt;b&gt;NotificationObserver&lt;/b&gt;" style="html=1;whiteSpace=wrap;" parent="1" vertex="1">
          <mxGeometry x="254" y="10" width="160" height="50" as="geometry" />
        </mxCell>
        <mxCell id="rY1PE9I_1umJuD0Sh5mE-5" style="edgeStyle=orthogonalEdgeStyle;rounded=0;orthogonalLoop=1;jettySize=auto;html=1;entryX=1;entryY=0.5;entryDx=0;entryDy=0;shape=flexArrow;" parent="1" source="rY1PE9I_1umJuD0Sh5mE-2" target="rY1PE9I_1umJuD0Sh5mE-1" edge="1">
          <mxGeometry relative="1" as="geometry" />
        </mxCell>
        <mxCell id="rY1PE9I_1umJuD0Sh5mE-2" value="«class»&lt;br&gt;&lt;b&gt;NotificationSystem&lt;/b&gt;" style="html=1;whiteSpace=wrap;" parent="1" vertex="1">
          <mxGeometry x="380" y="130" width="160" height="50" as="geometry" />
        </mxCell>
        <mxCell id="rY1PE9I_1umJuD0Sh5mE-4" style="edgeStyle=orthogonalEdgeStyle;rounded=0;orthogonalLoop=1;jettySize=auto;html=1;entryX=0;entryY=0.5;entryDx=0;entryDy=0;shape=link;" parent="1" source="rY1PE9I_1umJuD0Sh5mE-3" target="rY1PE9I_1umJuD0Sh5mE-1" edge="1">
          <mxGeometry relative="1" as="geometry" />
        </mxCell>
        <mxCell id="rY1PE9I_1umJuD0Sh5mE-3" value="«class»&lt;br&gt;&lt;b&gt;User&lt;/b&gt;" style="html=1;whiteSpace=wrap;" parent="1" vertex="1">
          <mxGeometry x="130" y="130" width="160" height="50" as="geometry" />
        </mxCell>
        <mxCell id="rY1PE9I_1umJuD0Sh5mE-9" style="edgeStyle=orthogonalEdgeStyle;rounded=0;orthogonalLoop=1;jettySize=auto;html=1;shape=flexArrow;" parent="1" source="rY1PE9I_1umJuD0Sh5mE-7" target="rY1PE9I_1umJuD0Sh5mE-10" edge="1">
          <mxGeometry relative="1" as="geometry">
            <mxPoint x="470" y="255" as="targetPoint" />
          </mxGeometry>
        </mxCell>
        <mxCell id="rY1PE9I_1umJuD0Sh5mE-14" style="edgeStyle=orthogonalEdgeStyle;rounded=0;orthogonalLoop=1;jettySize=auto;html=1;entryX=0.353;entryY=1.047;entryDx=0;entryDy=0;entryPerimeter=0;shape=flexArrow;" parent="1" source="rY1PE9I_1umJuD0Sh5mE-7" target="rY1PE9I_1umJuD0Sh5mE-3" edge="1">
          <mxGeometry relative="1" as="geometry">
            <Array as="points">
              <mxPoint x="187" y="250" />
            </Array>
          </mxGeometry>
        </mxCell>
        <mxCell id="rY1PE9I_1umJuD0Sh5mE-15" style="edgeStyle=orthogonalEdgeStyle;rounded=0;orthogonalLoop=1;jettySize=auto;html=1;entryX=0;entryY=0.5;entryDx=0;entryDy=0;shape=flexArrow;" parent="1" source="rY1PE9I_1umJuD0Sh5mE-7" target="rY1PE9I_1umJuD0Sh5mE-2" edge="1">
          <mxGeometry relative="1" as="geometry" />
        </mxCell>
        <mxCell id="rY1PE9I_1umJuD0Sh5mE-7" value="«class»&lt;br&gt;&lt;b&gt;Main&lt;/b&gt;" style="html=1;whiteSpace=wrap;" parent="1" vertex="1">
          <mxGeometry x="250" y="230" width="160" height="50" as="geometry" />
        </mxCell>
        <mxCell id="rY1PE9I_1umJuD0Sh5mE-10" value="Client" style="shape=umlActor;verticalLabelPosition=bottom;verticalAlign=top;html=1;" parent="1" vertex="1">
          <mxGeometry x="480" y="225" width="30" height="60" as="geometry" />
        </mxCell>
      </root>
    </mxGraphModel>
  </diagram>
</mxfile>
